<?xml version="1.0" encoding="utf-8"?>
<!-- Generator: Adobe Illustrator 21.0.2, SVG Export Plug-In . SVG Version: 6.00 Build 0)  -->
<svg version="1.1" id="Layer_1" xmlns="http://www.w3.org/2000/svg" xmlns:xlink="http://www.w3.org/1999/xlink" x="0px" y="0px"
	 viewBox="0 0 888 305" style="enable-background:new 0 0 888 305;" xml:space="preserve">
<style type="text/css">
	.st0{fill:#141129;}
	.st1{fill:#AE3530;}
	.st2{fill:#757B9A;}
	.st3{fill:#EDCEC5;}
	.st4{fill:#B8A7B2;}
	.st5{fill:#314168;}
</style>
<polyline class="st0" points="0,0 888,0 888,305 0,305 0,0 "/>
<path class="st0" d="M21.3,19.3c-3.9,1.4-6.4,5.5-6.1,9.7c0,82.4,0,164.8,0,247.1c-0.3,5.7,5.1,10.7,10.8,10.2
	c278.3,0.1,556.7,0,835,0c3.3,0.1,6.8-0.6,9-3.3c3.9-3.6,2.6-9.3,2.8-14.1c-0.1-80,0-160.1,0-240.1c0.3-4.7-3.1-9.5-7.9-10.1
	c-4.3-0.4-8.7-0.1-13-0.2c-272.7,0-545.3,0-818,0C29.8,18.8,25.4,18.2,21.3,19.3"/>
<path class="st0" d="M20.4,26.2c2-1.3,4-2.7,6.5-2.4c163.3,0,326.7,0,490,0c6,0,11.9-0.2,17.9,0.3c-0.3,10.6-0.3,21.3,0,32
	c-21.5,0.2-42.7,7.9-59.4,21.3c-17.4,13.7-29.8,33.6-34.4,55.2c-1.4-4.1-2.2-8.2-3.6-12.3c-3.9-10.8-10.2-20.6-17.7-29.2
	C403.6,72,380.3,58,354.9,55.5c-4-0.2-7.9-0.7-11.9-0.8c-23.3-0.1-46.5,0.1-69.8-0.1c-0.7,7.4-0.3,14.8-0.4,22.3
	c0.1,10.4-0.2,20.8,0.2,31.2c22.7,0.1,45.3,0,68,0.1c4.4,0.1,8.8-0.3,13.2,0.5c12.5,2.6,24.3,10,31.2,20.9
	c5.1,7.1,5.8,16.3,4.6,24.7c-8.2-1.6-16.6-0.8-24.9-0.6c-1.7-1.5-3.4-3.7-6-3.4c-36.9,0-73.8,0-110.7,0c0,0.7,0,2.2,0,2.9
	c-14.7,0.2-29.4,0.2-44.1,0c-0.2-15,0.4-30-0.4-44.9c16-0.4,31.9,0,47.9-0.2c0-17.8,0.1-35.6,0-53.3c-60.9-0.2-121.8,0-182.7-0.1
	c-3.4,0-6.9,0.1-10.3,0.4l-0.9,0c0,17.7-0.1,35.4,0,53.1c16,0.3,32,0,48.1,0.1c-0.1,15-0.3,30-0.1,45.1c-21.6,0.3-43.3,0-64.9,0.1
	c-6.6,0.1-13.3-0.4-19.8,0.4l-0.8,0.1C20.6,111.4,20.5,68.8,20.4,26.2"/>
<path class="st0" d="M537.6,24.1c17.1-0.5,34.3-0.1,51.4-0.2c90.7,0,181.4,0,272.1,0c2.5-0.2,4.6,1.1,6.5,2.4
	c-0.1,42.6-0.2,85.1,0,127.7l-0.8-0.1c-13.7-1-27.4,0.1-41.1-0.5c-0.2-32.8,0.1-65.7-0.1-98.5c-17.3-0.2-34.6-0.1-51.9,0
	c-0.1,31.9,0,63.8,0,95.7c-13.9-0.1-27.8,0.1-41.7-0.1c-2,0.2-3.4-1.5-4.7-2.7c-32.2-32.4-64.7-64.6-96.8-97
	c-0.2,23.8-0.3,47.7,0.1,71.5c-0.6,0.3-1.8,1-2.4,1.3c0.8-2.4,0.1-4.8-0.8-7.1c-11.5-28.3-37.2-50.4-66.9-57.6
	c-7.4-1.8-15-2.8-22.6-2.8C537.6,45.5,537.8,34.8,537.6,24.1"/>
<path class="st0" d="M632.4,55.5c2.4,5.1,4.2,10.5,6.5,15.6c-0.4,41.9-0.3,83.9,0.2,125.8c0.2,13.6,0.2,27.3,0.1,40.9
	c11.3,0,22.7-0.1,34,0c0.2-25.9,0-51.8,0.2-77.6c0.2-3.2,0.7-6.4,1.2-9.5c0.4,4.1,0.7,8.1,0.7,12.2c0.1,17.7,0.1,35.3,0.1,53
	c-0.1,7.8,0.5,15.7-0.8,23.5c-6.5,0.6-13,0.8-19.6,0.7c-5.2-0.1-10.5,0.4-15.5-0.7c-1.3-0.2-1.9-1.5-2-2.7
	c-0.5-3.6-0.2-7.2-0.2-10.8c0.1-49.3,0.1-98.7,0.1-148c0.1-4-1.1-7.8-2.9-11.3c-0.6,21.4,0,42.9-0.3,64.3
	c-0.3,5.6-0.7,11.1-0.7,16.7c-0.2,0-0.7,0-1,0c0-4.1,0-8.2-0.4-12.2C632.4,108.8,631.9,82.2,632.4,55.5"/>
<path class="st0" d="M822.3,57.4c0.4,0,1.1-0.1,1.5-0.1c-0.2,63.1,0.1,126.2-0.2,189.4c-29.9-29.8-59.8-59.8-89.6-89.6
	c-1.8-1.5-3.5-3.9-6.1-3.8c-15.7-0.3-31.5,0-47.2-0.1l-1,0c0.8,9.9,0.4,19.9,0.6,29.9c-0.1,20.4,0.1,40.8-0.1,61.3
	c-16,0.1-31.9,0.3-47.9-0.1c0-24.3-0.1-48.6,0.1-72.9c0.4-0.2,1.3-0.7,1.7-1c0.6,24.2,0.1,48.3,0.3,72.5c14.6,0,29.3,0,43.9,0
	c0.5-27.9,0-55.9,0.3-83.9c0.1-2.6,0.4-5.1,0.8-7.6c15.1-1.3,30.2,0.2,45.3-0.6c-12.3-13.4-25.7-25.7-38.2-38.9
	c-3.6-4-8.4-7.3-10.2-12.6c17.2,16.7,34,33.8,51,50.7c5.7,5.4,14,6.5,20.5,10.6c22.6,22.7,45.5,45.2,68.1,67.9l-0.1,0.8
	c-0.5,0.1-1.5,0.4-2,0.5c-21-21.7-42.8-42.7-63.9-64.4c-2.8-3.2-6.6-5.2-10.6-6.5c3.9,4.7,8.5,8.9,12.9,13.2
	c16.5,16.5,33,33,49.5,49.5c6.8,6.5,13.1,13.6,20.2,19.8c0.2-52.1,0.1-104.3,0.1-156.4c-0.1-7.8,0.3-15.6-0.2-23.4
	c-1.6,2.1-3.1,4.6-2.8,7.4c0,46.7,0.2,93.4,0.1,140.1c-0.1,6.5,0.3,12.9-0.2,19.3c-0.4,0.1-1.2,0.4-1.6,0.5c-0.2-54,0.2-108-0.1-162
	C816.3,62.8,820.1,60.3,822.3,57.4"/>
<path class="st0" d="M60.3,57.3c0.3,0.2,1,0.8,1.4,1c1.8,2.1,4.5,3.7,5.1,6.5c-1.1,11.6,0.4,23.2-1,34.7
	c-2.3-10.4-0.4-21.1-0.9-31.6c0-2.2-1.3-3.9-2.3-5.7c-0.9,13.9-0.2,27.9-0.4,41.8c10.2,0.4,20.5,0.1,30.8,0.2
	c5.1,0.1,10.3,0,15.4-0.6c0.1-0.6,0.4-1.8,0.5-2.4c-10.3,0.2-20.6,0-30.9,0.2c-3.8,0.1-7.7-0.2-11.5-1c7.1-0.5,14.3-0.1,21.4-0.2
	c8.8,0.1,17.6-0.3,26.4,0.2c-0.9,0.8-1.7,1.6-2.6,2.4c-1.9,1.8-4,3.7-6.8,3.3c-14.7-0.1-29.5,0.1-44.2-0.2
	c-0.7-15.4,0.4-30.9-0.6-46.4C60.3,59.1,60.3,57.9,60.3,57.3"/>
<path class="st0" d="M243.1,63.8c2.2-2.2,4.3-4.5,6.5-6.7c0.6,16.4,0.1,32.8,0.3,49.2c-16,0.2-32-0.2-48,0.2
	c-2.3-2.2-4.6-4.4-6.6-6.9c16.1,1.6,32.2,0.1,48.3,0.9c-3.8,0.8-7.6,1.1-11.5,1c-10.3-0.2-20.6,0.1-30.9-0.2
	c0.1,0.6,0.3,1.8,0.4,2.4c7.5,1,15,0.5,22.5,0.6c7.9,0,15.9,0.1,23.8-0.2c0-13.7-0.1-27.4,0-41.2c-0.6,0.2-1.8,0.5-2.4,0.7
	c-1.6,11.9,0.4,23.9-1.2,35.8c-1.3-11.6,0.5-23.3-1.1-34.8L243.1,63.8"/>
<path class="st0" d="M274.9,57.1c2.2,2.2,5.2,4,6.3,6.9c-0.8,11.7-1,23.6,0,35.3c-0.7,0.6-1.3,1.1-2,1.7c0-8.4-0.1-16.7,0-25.1
	c0-4.6,0.7-9.6-1.9-13.7c-0.6,4.2-0.7,8.5-0.6,12.7c0.1,9.8-0.3,19.5,0.4,29.3c18.9,0.3,37.9,0,56.8,0.1c6.5,0.1,12.9-0.4,19.4,0.4
	c16.3,2.7,31.5,13.1,38.4,28.4c2.5,5.5,2.6,11.7,2.7,17.6c14.9,0,29.7,0.2,44.5-0.1c-0.9-9.6-1.9-19.4-5.1-28.6
	c-2.5-7.7-6.7-14.6-10.9-21.4c0-0.6,0-1.6,0-2.2c10.2,13,16.8,29.1,17.1,45.7c0.1,5.7,2.6,11,3,16.7c1.9,23.8,13.6,46.7,31.7,62.3
	c14.3,12.6,32.4,20.5,51.3,22.7c15.4,1.6,31.3-0.3,45.7-6.2c23.2-9.2,42.4-28.1,51.9-51.3c2.6-6,4-12.5,6.2-18.7
	c0.2,1.4,0.3,2.8,0.5,4.2c-6.9,32.9-33,60.6-65,70.2c-22.5,7-47.5,5.4-68.9-4.5c-20.6-9.4-37.6-26.4-47-47
	c-5.8-12.4-8.2-26-8.8-39.5c-16.1,0-32.1,0-48.2,0c-0.1-6.2,0.3-12.6-2.1-18.4c-6.4-14.9-21-25.2-36.6-28.1
	c-4.2-0.6-8.4-0.3-12.6-0.4c-22.1,0-44.1,0.1-66.2,0C274.8,89.9,274.5,73.5,274.9,57.1"/>
<path class="st0" d="M68.7,65.3c2.4,0.1,4.9,0.2,7.3,0.2c49.7,0,99.3,0,149,0c5.5,0,10.9,0.1,16.4-0.2c0.2,10.8,0.2,21.7,0,32.5
	c-15.9-0.3-31.8-0.1-47.7-0.1c0.1,28.8-0.3,57.6-0.5,86.3c-0.6,10.3-0.5,20.7-1.1,31.1c-0.4-3-0.4-6-0.4-9c0-6.6-0.3-13.2-0.3-19.9
	c0-6.7-0.3-13.3-0.3-20c0.2-9-0.4-18-0.5-27.1c-14.2-0.6-28.4-0.1-42.6-0.3c-9.5,0.1-19.1-0.4-28.5,0.5c-0.2,9.2-0.5,18.3-0.6,27.5
	c0,7-0.3,14-0.2,20.9c0.1,6.1-0.2,12.2-0.3,18.3c0,2.2,0,4.4,0,6.6c-0.1,0-0.4,0-0.6,0c-0.2-9.6-0.5-19.1-0.5-28.7
	c-1.4-28.8-0.6-57.6-0.9-86.3c-15.9-0.1-31.8-0.1-47.6,0C68.5,86.9,68.5,76.1,68.7,65.3"/>
<path class="st0" d="M282.5,65.4c22.5,0.3,45,0,67.5,0.2c22.4,1.1,43.1,12.8,58.3,28.9c2.8,3.9,6.1,7.5,8.8,11.4
	c8,11.2,13.1,24.6,13.5,38.4c-10.2,0.1-20.3,0.2-30.5,0c-0.2-11.8-6.8-22.4-15-30.4c-11-10.3-26-16.6-41.2-16.3
	c-20.4,0.2-40.9-0.4-61.3,0.3C282.3,87,282.6,76.2,282.5,65.4"/>
<path class="st0" d="M461.1,109.5c14.7-25.6,43.3-42.5,72.9-43.1c18.5-0.7,37.2,4.8,52.4,15.3c12.3,8.2,21.9,19.9,28.9,32.9
	c0.9,2.5,1.9,4.9,2.9,7.3c9.8,24.8,7,54.3-7.6,76.7c-3.9,6.1-9.3,10.9-14,16.4c2-2.5,4-5,6-7.4c4-4.7,6.8-10.3,9.9-15.7
	c3.9-7.3,6.2-15.3,7.7-23.4c1.2-7.2,2.6-14.9,0.3-22.1c-0.5-1.9-2.9-1.6-4.5-1.8c-6.7-0.3-13.5,0-20.2,0.2
	c-0.1,7.8-0.3,15.6-2.3,23.2c-2.3,8.3-6.6,15.9-12.1,22.5c-10.7,12.5-27,19.8-43.4,20c-17.5,0.5-35.3-7.1-46.7-20.5
	c-5-6.6-9.5-13.7-11.5-21.8c-2.1-8-2.3-16.2-2.2-24.4c-7.2-0.1-14.5-0.6-21.7,0c-2.8-0.1-3.6,3-3.9,5.2c-0.9,7.7-0.3,15.6,1.6,23.1
	c1.6,6.5,3.6,13,6.7,18.9c4,8.3,9.1,16.1,15.6,22.7c-7-7.1-13.8-14.7-18-23.8C445.6,164.8,446.9,133.7,461.1,109.5"/>
<path class="st0" d="M531.4,97.6c-17.2,1.6-33.4,11.5-42.6,26.2c-8.4,12.9-10.8,29.4-6.8,44.2c6.7,24.9,32.1,43.6,57.9,41.7
	c15-0.8,29.3-8.4,39.2-19.6c8.9-9.8,13.8-22.9,14.1-36.1c0.1-17.4-8.4-34.6-22.4-44.9C559.9,100.5,545.4,96.3,531.4,97.6"/>
<path class="st0" d="M784,65.7c10.4-0.2,20.9-0.1,31.3,0c-0.2,27.1,0.3,54.2-0.4,81.4c0.1,12.2-0.3,24.4,0.1,36.6
	c-0.2,5.4-0.5,10.7-0.7,16.1c-0.2,1.4-0.5,2.9-0.7,4.3c0.5-5.9,0-11.9-0.4-17.8c0-7.7-0.3-15.3-0.4-23c0.5-8.8-0.3-17.6-0.9-26.4
	c-8.2-0.3-16.5,0-24.8-0.4c-0.5,7.6-0.8,15.3-0.2,22.9c-0.7,0.8-1.4,1.7-2.1,2.5c-0.1-7.1,0-14.1-0.6-21.2
	c-0.8-10.9-0.3-21.8-0.4-32.7C783.9,93.9,783.6,79.8,784,65.7"/>
<path class="st0" d="M640.7,99c0.3-7.6-0.8-15.2,0.7-22.7C651.8,87,662.5,97.4,673,108c11.8,12.1,24,23.8,35.7,36
	c-12.4,0.5-24.8,0-37.2,0.3c0,15.6-0.1,31.1-0.2,46.6c-0.1,6.7-1,13.4-0.8,20.1c-0.7-6.3-1-12.6-0.9-19c0-6.7-0.2-13.5-0.2-20.2
	c0.2-8.3-0.2-16.5-0.9-24.7c-8.2-0.8-16.4-0.5-24.6-0.3c-1,8.6-0.9,17.2-0.8,25.9c0,7-0.4,13.9-0.4,20.9c0.1,6-0.3,12-0.4,18
	c0,0.8,0,2.3,0,3.1c-0.1,0-0.4,0-0.5-0.1c0-4.4-0.3-8.7-0.5-13.1C641.4,167.4,640.3,133.2,640.7,99"/>
<path class="st0" d="M523.1,101c15.4-4.1,32.5-0.9,45.4,8.5c12,8.5,20.4,21.9,22.2,36.5c0.2,6.1,0.6,12.3-0.9,18.2
	c-0.3-8.5,0.4-17.3-2.4-25.5c-4.1-13.9-14.1-25.8-27.1-32.1c-9.6-5-20.7-6.3-31.3-5c-18.6,2.6-35.3,16-41.8,33.6
	c-3.6,8.6-3.6,18-3.9,27.1c-2-10.3-0.9-21.2,3.5-30.7C493.3,116.7,507.1,105,523.1,101"/>
<path class="st0" d="M282.8,100.5c23.4-0.4,46.9,0,70.3-0.2c18,2.9,34.8,14.4,42.3,31.2c2.1,4.6,2.5,9.7,2.9,14.7
	c11.4,0.2,22.9,0.2,34.3,0c-0.1-15.7-6.3-30.7-15.1-43.5c1.7,1.5,3.6,2.9,4.8,4.8c5,7.7,8.8,16.3,10.6,25.3
	c0.8,4.1,1.9,8.4,1.3,12.6c-0.8,2.6-4.1,2.4-6.2,2.7c-7.7,0.2-15.4,0-23.1,0.1c-2.5-0.2-5.6,0.2-7.5-1.6c-1.9-4.6-1.4-9.9-3.6-14.4
	c-3.7-8.1-9.5-15.3-16.6-20.5c-5.9-3.9-12.2-7.1-18.9-9.3c-8.2-2.7-16.9-1.5-25.3-1.7C316.3,100.5,299.5,101,282.8,100.5"/>
<path class="st0" d="M528.6,104.7c9-1.2,18.4-0.6,26.8,3c15.7,6.1,27.7,20.8,30.3,37.4c1.4,7.1,0.1,14.2-1.3,21.2
	c-0.7,3.3-2.1,6.5-4.6,8.9l0.4-0.9c3.7-7.8,4.8-16.7,4.2-25.3c-1.4-15.6-11.2-30-25.1-37.3c-14.5-7.9-33.3-7.5-47.4,1.2
	c-16.3,9.5-25.9,29.3-22.5,48c-1.1,0.9-1.7,0.7-1.7-0.7c-1.4-9.1-0.4-18.7,3.5-27.1C497.8,118.1,512.5,107.2,528.6,104.7"/>
<path class="st0" d="M503.3,122.3c8.1-8.6,19.8-14.1,31.7-14.1c-0.7,15.1-0.2,30.3-0.3,45.4c-14.7,0-29.4-0.5-44.1,0.3
	C490.8,142.3,495.1,130.6,503.3,122.3"/>
<path class="st0" d="M537.6,108.4c2.2,0,4.4,0,6.6,0.1c13.5,2.3,25.9,10.8,32.5,22.8c3.7,6.7,6.1,14.4,5.7,22.1
	c-14.9,0-29.8,0.1-44.8-0.1C537.6,138.4,537.8,123.4,537.6,108.4"/>
<path class="st0" d="M678.6,110.7c4,1.1,6.5,4.5,9.4,7.3c7.7,7.6,15.4,15.3,23.1,22.9c1.9,1.6,2.4,4.2,2.9,6.5
	c-9.6,1.4-19.3,0.5-28.9,0.8c-3.8,0-8,0.7-11.4-1.6c13.1-1,26.2,0.5,39.3-0.8C701.7,133.9,689.9,122.5,678.6,110.7"/>
<path class="st0" d="M776.4,112.6c0.8,3.6,0.9,7.4,0.8,11.1c-1.5,6.4-0.2,12.9,0.1,19.3c0.2,3.6-0.6,7.9,2.8,10.3
	c0.8-8.4,0.9-16.9,1.5-25.4c0,9.5-0.7,19,0.8,28.4c0,0.7,0.1,2,0.1,2.7c-2.3-2.1-4.4-4.4-6.8-6.4c-0.1-9.2-0.2-18.5,0.5-27.7
	C776.5,120.7,776.4,116.6,776.4,112.6"/>
<path class="st0" d="M196.5,134.9c0.4,6.7,0.3,13.4,0.2,20.1c-0.1,21,0.7,42,0.4,63c-0.2,6.5,0.7,13.1-0.6,19.6
	c-0.8,2.7-4.3,2-6.4,2.3c-23.4,0-46.8,0-70.1,0c-2.1-0.3-4.8,0.3-6.2-1.6c-0.8-3-0.5-6.2-0.6-9.3c0.3-27.4-0.2-54.9,0.4-82.3
	c1.2,8,0.5,16.2,0.7,24.3c0.2,10.4-0.3,20.9,0.7,31.3c0.6,11.8,0.2,23.7,0.3,35.5c26.5,0,53.1,0,79.6,0c0-17.9,0-35.9,0-53.8
	c0.6-7.9,0.4-15.8,0.5-23.7C196.6,151.9,196.1,143.3,196.5,134.9"/>
<path class="st0" d="M200.3,152c0.3-5.3-1-11.1,1.7-16c-0.5,6-0.1,12-0.2,18c0.1,30,0.1,60.1,0,90.1c-22,0.5-43.9,0.1-65.9,0.2
	c-9.3-0.1-18.6,0.2-27.9-0.2c0.2-32.4,0.1-64.8,0-97.3c0.4-0.2,1.2-0.5,1.6-0.7c-0.2,11.6,0,23.2,0,34.8c0.3,20.6-0.2,41.2,0.3,61.8
	c30-0.1,60-0.1,89.9,0C200.5,212.5,199.9,182.3,200.3,152"/>
<path class="st0" d="M625,165.1c2-8.3,1.4-16.8,1.4-25.2c2.2,13.2,1.1,26.9-2.8,39.7c-8.2,27.8-30.9,50.6-58.5,59.4
	c-16.9,5.6-35.5,5.9-52.7,1.3c-24.6-6.8-46.3-24.3-57.5-47.4c-7.3-14.6-10.1-31.1-8.5-47.2c0.2,4.9,0.4,9.7,1.2,14.5
	c2,21.3,11.6,42.1,27.5,56.5c20.3,19.7,50.3,28.6,78,23.2c18.4-3.4,35.6-12.8,48.4-26.5C614.2,200.4,622.3,183.1,625,165.1"/>
<path class="st0" d="M20.2,156.2l0.5,0c28.4,0.7,56.8,0,85.2,0.4c-0.3,30.1-0.2,60.2-0.1,90.3c7,0.4,14.1,0.2,21.2,0.2
	c25.7,0,51.4,0.1,77.1-0.1c0.2-30.2,0-60.3,0.1-90.4c14.7-0.2,29.3,0,44-0.1c-0.1,30.2,0,60.4-0.1,90.6c17.6,0.2,35.2,0.2,52.7,0
	c0.2-21.4,0.1-42.7-0.2-64.1c0-8-0.3-16.1,0.2-24.1c15,14.1,28.8,29.4,43.9,43.4c14.6,14.8,29.5,29.3,44,44.2
	c5.7,1.2,11.5,0.6,17.2,0.7c17.1-0.2,34.3,0.3,51.5-0.3c-0.3-0.4-1-1.1-1.3-1.5c-29.3-29.8-59.2-59.1-88.7-88.8
	c17.2-0.1,34.3-0.4,51.5-0.3c6.7,0.1,13.3-0.5,20,0.3c0.5,25.2,11.9,49.9,30.4,67.1c17.4,16.9,41.6,26.5,65.8,26.9
	c-0.8,10.1-0.5,20.2-0.2,30.2c-16.3,0.8-32.6,0.1-48.9,0.3c-152.7,0-305.4,0-458.1,0c-2.7,0-6.4-0.5-7.3-3.6
	c-0.5-3.5-0.1-7-0.2-10.5c0-30.3,0-60.7,0-91C20.5,169.4,20.7,162.8,20.2,156.2"/>
<path class="st0" d="M491.2,156c2.2,0.4,4.5,0.5,6.8,0.6c12.2,0.1,24.5-0.2,36.8,0.1c0.1,13.9-0.4,27.9,0.3,41.8
	C512.5,198.3,491.5,178.8,491.2,156"/>
<path class="st0" d="M537.6,156.6c14.9-0.2,29.8,0.5,44.7-0.4c-0.6,10.8-5.4,21.4-13.3,28.9c-8.1,8.5-19.8,13.2-31.5,13.5
	C537.7,184.6,537.7,170.6,537.6,156.6"/>
<path class="st0" d="M682.3,155.9c15.6-0.4,31.3,0.1,46.9-0.2c4.3,3.3,7.9,7.5,11.8,11.3c28.2,28.1,56.1,56.4,84.5,84.3
	c0.4-31.5,0-63.1,0.2-94.6c13.8-0.4,27.7,0.3,41.5-0.4l0.5,0c-0.7,16.2-0.1,32.5-0.3,48.8c0,23.3-0.1,46.7,0,70
	c0.2,2.2-0.6,4.7-2.9,5.5c-4.1,1.1-8.4,0.5-12.6,0.6c-82.3,0-164.7,0-247,0c-22.5-0.2-44.9,0.4-67.4-0.3c0-10.1,0.2-20.2-0.1-30.3
	c34.9,0.1,68.6-20.2,85.2-50.8c3.1-5.2,4.8-11,7.4-16.5c0.5,21.2,0,42.4,0.2,63.6c17.3,0,34.6,0.1,52,0
	C682.4,216.5,682.2,186.2,682.3,155.9"/>
<path class="st0" d="M317.3,161.1c12.9,0,25.9,0.4,38.8-0.3c11.5,11.5,22.9,23.2,34.4,34.7c5.3,6.3,11.3,12,16.7,18.2
	c-4.2-4-8.3-8.1-12.6-12.1c-5.9-5.5-11.8-10.9-17.5-16.7c-5.4-5.6-11.3-10.8-16.6-16.5c-1.8-1.8-3.4-3.9-5.8-4.9
	c-2.8-0.7-5.8-0.5-8.7-0.5c-7.6,0.2-15.2-0.2-22.7,0.3c1.9,2.3,3.9,4.6,6.1,6.6c5.5,5.2,10.5,10.9,16.2,15.9
	c6.5,6.3,12.2,13.3,18.8,19.6c2.7,2.7,5.4,5.4,7.8,8.2c-9.6-9.7-20.2-18.3-29.7-28C333.8,177.6,325.6,169.3,317.3,161.1"/>
<path class="st0" d="M750.3,160.9c0.6,0,1.7,0,2.3,0c10.8,1.4,21.8-0.5,32.6,1.2c-2.3,0.8-4.7,1.5-7.2,1.4c-7.2,0-14.4-0.3-21.6,0.1
	c4.4,5.2,9.3,10,14.2,14.8c6.1,6.3,12.6,12.4,17.8,19.5C775.6,185.7,762.6,173.7,750.3,160.9"/>
<path class="st0" d="M297.4,184.1c0.6,5.9,0.4,11.9,0.5,17.9c0.2,14.1,0.4,28.2,0.1,42.3c-15.7,0.2-31.4,0.2-47.1,0
	c-0.3-4.1-0.4-8.2-0.3-12.2c0.3-12.5-0.6-25,0.7-37.4c1.8,16,0.6,32.2,0.9,48.3c14.8-0.1,29.6-0.1,44.4,0
	c-0.3-18.8,0.2-37.5,0.6-56.3C297.4,185.9,297.4,184.7,297.4,184.1"/>
<path class="st0" d="M390.7,192.7c2.7,1,5,2.7,6.9,4.7c12.9,13,26.5,25.4,38.8,39c-0.7,0-2,0-2.7,0
	C419.4,221.7,404.7,207.6,390.7,192.7"/>
<path class="st0" d="M254.4,231c0.5-12.8-0.6-25.6,0.8-38.3c0.5,2.5,1,4.9,1.3,7.4c0.3,12.5,0.2,25.1,0.1,37.7
	c11.4,0,22.9-0.1,34.4,0c0-7.5-0.3-15,0.3-22.5c0.6-6.6,0.1-13.2,1.2-19.7c0.7,14.6,0.8,29.2,0.2,43.9c-9.5,0.6-19,0.2-28.5,0.4
	c-2.7-0.1-5.6,0.2-8.2-0.8C253.7,237,254.6,233.7,254.4,231"/>
<path class="st0" d="M338.7,193.6c5.1,1.7,8.3,6.2,12.1,9.7c12.4,11.9,24.7,24,36.7,36.4c1.5,1.5,3.3,3.1,5.6,3.1c6,0.4,12,0,18,0.1
	c12.2-0.2,24.4,0.4,36.6-0.3c-15.3-16-31.7-31.1-46.4-47.7c0.5,0.1,1.4,0.3,1.9,0.4c16.3,16,32.4,32.1,48.5,48.3
	c-2.5,0.5-5,0.9-7.6,1c-18.1,0.1-36.2-0.3-54.3,0.2C372.7,227.6,355.6,210.7,338.7,193.6"/>
<path class="st0" d="M346.1,193.9c0.5,0.1,1.4,0.2,1.9,0.3c14.3,13.6,28.3,27.6,42.2,41.6c1.1,1,2.2,2.2,3.8,2
	c13.4,0.1,26.8-0.1,40.2,0.1c0.2,0.5,0.6,1.4,0.8,1.9c-9.3,0.7-18.7,0-28,0.2c-4.6,0-9.3,0.3-13.9-0.2c-2.7-0.3-4.5-2.6-6.4-4.3
	C373.2,221.5,359.1,208.2,346.1,193.9L346.1,193.9z"/>
<path class="st1" d="M21.3,19.3c4.1-1.1,8.5-0.5,12.7-0.6c272.7,0,545.3,0,818,0c4.3,0.1,8.7-0.3,13,0.2c4.8,0.6,8.2,5.4,7.9,10.1
	c0,80,0,160.1,0,240.1c-0.2,4.7,1.1,10.4-2.8,14.1c-2.2,2.7-5.7,3.4-9,3.3c-278.3,0-556.7,0-835,0c-5.7,0.5-11.1-4.5-10.8-10.2
	c0-82.4,0-164.8,0-247.1C14.9,24.8,17.4,20.7,21.3,19.3 M20.4,26.2c0.1,42.6,0.2,85.1,0,127.7l0.8-0.1c-0.1,0.6-0.3,1.8-0.5,2.4
	l-0.5,0c0.6,6.6,0.3,13.2,0.3,19.7c0,30.3,0,60.7,0,91c0.1,3.5-0.3,7,0.2,10.5c0.8,3.1,4.5,3.6,7.3,3.6c152.7,0,305.4,0,458.1,0
	c16.3-0.2,32.6,0.4,48.9-0.3c0.7,0,2,0.1,2.7,0.1c22.5,0.6,44.9,0.1,67.4,0.3c82.3,0,164.7,0,247,0c4.2-0.1,8.5,0.5,12.6-0.6
	c2.3-0.7,3.1-3.3,2.9-5.5c-0.1-23.3,0-46.7,0-70c0.2-16.3-0.4-32.5,0.3-48.8l-0.5,0c-0.1-0.6-0.3-1.8-0.4-2.4l0.8,0.1
	c-0.2-42.6-0.1-85.2,0-127.7c-2-1.3-4-2.7-6.5-2.4c-90.7,0-181.4,0-272.1,0c-17.1,0.1-34.3-0.3-51.4,0.2c-0.7,0-2,0.1-2.7,0.1
	c-6-0.5-11.9-0.3-17.9-0.3c-163.3,0-326.7,0-490,0C24.5,23.6,22.4,24.9,20.4,26.2 M60.3,59.6c0.9,15.5-0.1,30.9,0.6,46.4L60,106
	C60.1,90.5,59.7,75.1,60.3,59.6 M818.6,68.9c-0.3-2.8,1.2-5.2,2.8-7.4c0.5,7.8,0.1,15.6,0.2,23.4c0,52.1,0.1,104.3-0.1,156.4
	c-7.1-6.2-13.4-13.2-20.2-19.8c-16.5-16.5-33-33-49.5-49.5c-4.3-4.4-9-8.5-12.9-13.2c4,1.3,7.8,3.3,10.6,6.5
	c21.1,21.7,42.9,42.7,63.9,64.4c0.5-0.1,1.5-0.4,2-0.5c0.3-0.1,1-0.3,1.4-0.4c0.4-0.1,1.2-0.4,1.6-0.5c0.5-6.4,0.1-12.9,0.2-19.3
	C818.8,162.3,818.6,115.6,818.6,68.9 M62.6,62.3c1.1,1.8,2.4,3.5,2.3,5.7c0.6,10.5-1.4,21.2,0.9,31.6c1.4-11.5-0.1-23.2,1-34.7
	c1.1,11.4,0.2,22.9,0.4,34.3c16.1,0.5,32.2-0.1,48.3,0.3c-0.3,0.3-0.9,0.8-1.1,1c-8.8-0.5-17.6-0.1-26.4-0.2
	c-7.1,0.1-14.3-0.3-21.4,0.2c3.8,0.8,7.6,1.1,11.5,1c10.3-0.2,20.6,0.1,30.9-0.2c-0.1,0.6-0.4,1.8-0.5,2.4
	c-5.1,0.6-10.3,0.7-15.4,0.6c-10.3-0.1-20.5,0.2-30.8-0.2C62.4,90.2,61.7,76.2,62.6,62.3 M245.4,63.7c0.6-0.2,1.8-0.5,2.4-0.7
	c-0.1,13.7,0,27.4,0,41.2c-7.9,0.3-15.9,0.2-23.8,0.2c-7.5,0-15,0.4-22.5-0.6c-0.1-0.6-0.3-1.8-0.4-2.4c10.3,0.2,20.6,0,30.9,0.2
	c3.9,0.1,7.7-0.2,11.5-1c-16.1-0.8-32.2,0.7-48.3-0.9c15.8-0.8,31.7,0.2,47.6-0.5c0.2-11.5-0.5-23,0.4-34.4
	c1.6,11.6-0.3,23.2,1.1,34.8C245.8,87.6,243.9,75.6,245.4,63.7 M277.4,62.3c2.6,4.1,1.9,9.1,1.9,13.7c-0.1,8.4,0,16.7,0,25.1
	c0.6-0.6,1.3-1.1,2-1.7l0.7,0c17.3,0.2,34.7,0,52,0.1c6.4,0.1,12.8-0.5,19.2,0.8c-23.4,0.2-46.9-0.2-70.3,0.2
	c16.7,0.5,33.5,0.1,50.2,0.2c8.4,0.2,17.1-1,25.3,1.7c6.7,2.2,13.1,5.4,18.9,9.3c7.2,5.2,13,12.4,16.6,20.5
	c2.1,4.5,1.6,9.8,3.6,14.4c2,1.7,5.1,1.3,7.5,1.6c7.7-0.1,15.4,0.1,23.1-0.1c2.2-0.3,5.4-0.1,6.2-2.7c0.6-4.2-0.5-8.5-1.3-12.6
	c-1.8-9-5.5-17.6-10.6-25.3c-1.3-1.9-3.1-3.4-4.8-4.8c-3.3-3-5.9-6.7-8.2-10.5c2.5,1.2,5,2.4,7.4,3.7c-1.3-2.4-2.5-4.9-3.7-7.4
	c0.4,0.2,1.2,0.5,1.7,0.6c2.8,3,5.6,6.1,8,9.5c0,0.6,0,1.7,0,2.2c4.3,6.8,8.4,13.8,10.9,21.4c3.2,9.2,4.3,18.9,5.1,28.6
	c-14.8,0.3-29.7,0-44.5,0.1c-0.1-5.9-0.2-12.1-2.7-17.6c-6.9-15.2-22.1-25.7-38.4-28.4c-6.4-0.8-12.9-0.3-19.4-0.4
	c-18.9-0.1-37.8,0.2-56.8-0.1c-0.7-9.8-0.3-19.5-0.4-29.3C276.7,70.7,276.8,66.5,277.4,62.3 M634.5,66.7c1.8,3.5,3,7.3,2.9,11.3
	c0,49.3-0.1,98.7-0.1,148c0,3.6-0.2,7.2,0.2,10.8c0.1,1.2,0.7,2.5,2,2.7c5.1,1.2,10.4,0.6,15.5,0.7c6.5,0.1,13-0.1,19.6-0.7
	c1.2-7.8,0.7-15.6,0.8-23.5c0-17.7,0-35.3-0.1-53c0-4.1-0.3-8.2-0.7-12.2c-0.5,3.1-0.9,6.3-1.2,9.5c-0.1-4.7-0.1-9.4-0.5-14l0.7,0.3
	c3.3,2.4,7.5,1.6,11.4,1.6c9.6-0.3,19.3,0.6,28.9-0.8c-0.5-2.3-1-4.8-2.9-6.5c-7.7-7.7-15.4-15.3-23.1-22.9
	c-2.8-2.8-5.4-6.2-9.4-7.3c-1.4-1.3-2.9-2.6-4.3-3.9c-2-2-3.9-4.1-6-6c1.8,0,3.6,0.1,5.4,0.2c-3.1-3.6-6.8-7-8-11.7
	c3.5,3.2,7,6.5,10.2,10c1.8,5.3,6.6,8.6,10.2,12.6c12.5,13.2,25.9,25.5,38.2,38.9c-15.1,0.8-30.2-0.7-45.3,0.6
	c-0.3,2.5-0.7,5.1-0.8,7.6c-0.3,28,0.2,55.9-0.3,83.9c-14.6,0-29.2,0-43.9,0c-0.2-24.2,0.4-48.4-0.3-72.5c-0.4,0.2-1.3,0.7-1.7,1
	c-0.8,0.9-1.4,1.8-2.1,2.8c-0.1-1.4-0.3-2.8-0.5-4.2c-2.2,6.2-3.6,12.6-6.2,18.7c-9.4,23.1-28.7,42.1-51.9,51.3
	c-14.4,5.9-30.3,7.8-45.7,6.2c-18.9-2.1-37-10.1-51.3-22.7C456.6,207.7,445,184.8,443,161c-0.4-5.7-2.9-11-3-16.7
	c2.6-8.1,3.9-16.7,7-24.6c0.2,0.6,0.6,1.8,0.8,2.4c-0.8,3.7-1.4,7.4-1.7,11.1c1.6-2.8,3.1-5.6,4.7-8.4c-0.5,4.1-1.2,8.2-1.9,12.3
	c-1.4,7.7-1.5,15.5-1.4,23.2c-0.8-4.8-1-9.7-1.2-14.5c-1.6,16.2,1.2,32.7,8.5,47.2c11.2,23.1,32.8,40.6,57.5,47.4
	c17.2,4.6,35.8,4.2,52.7-1.3c27.6-8.8,50.3-31.6,58.5-59.4c3.9-12.8,5-26.5,2.8-39.7c0,8.4,0.6,16.9-1.4,25.2
	c1.3-14.3,0-28.9-4.3-42.6c0.3,0.1,0.8,0.2,1.1,0.3c1.7,2.8,3.2,5.7,4.9,8.4c-0.7-4.9-1.7-9.7-2.2-14.6c1.1,2.4,2.3,4.6,3.4,6.9
	c0.9,4.1,1.9,8.2,4,11.9c0.4,4.1,0.4,8.2,0.4,12.2c0.2,0,0.7,0,1,0c0-5.6,0.5-11.1,0.7-16.7C634.5,109.6,633.9,88.1,634.5,66.7
	 M528.9,101.7c10.6-1.3,21.7,0,31.3,5c13,6.4,23,18.3,27.1,32.1c2.8,8.2,2,17,2.4,25.5c-0.1,3.7-1.8,7-3.6,10
	c-0.2-2.7,1.4-6.5-1.7-8c1.4-7,2.7-14.1,1.3-21.2c-2.6-16.6-14.6-31.4-30.3-37.4c-8.4-3.5-17.8-4.2-26.8-3
	c-16.1,2.5-30.8,13.4-37.3,28.4c-3.9,8.4-4.9,18-3.5,27.1c0,1.3,0.5,1.6,1.7,0.7c0.8,4.1,2.1,8.2,3.5,12.1c0.1,0.6,0.3,1.7,0.4,2.3
	c-2-2-3.8-4.2-5.5-6.5c-0.3,1.6-0.6,3.1-1,4.6c-2-3.3-3.6-7-3.6-11c0.3-9.1,0.3-18.5,3.9-27.1C493.7,117.7,510.3,104.3,528.9,101.7
	 M108.4,109.2c0.3,0,0.8,0,1.1,0c0,4.4,0.4,8.9,1.5,13.2c1.7-2.6,2.5-5.5,2.6-8.5c0.3,2.8,0.7,5.5,0.9,8.3
	c-0.1,9.9,0.9,19.8,0.7,29.8c-0.1,16.8,0.3,33.5-0.3,50.3c-1-10.4-0.6-20.9-0.7-31.3c-0.2-8.1,0.5-16.2-0.7-24.3
	c-0.6,27.4-0.1,54.8-0.4,82.3c0,3.1-0.2,6.3,0.6,9.3c1.4,1.9,4.2,1.3,6.2,1.6c23.4,0,46.8,0,70.1,0c2.2-0.3,5.7,0.4,6.4-2.3
	c1.4-6.4,0.4-13.1,0.6-19.6c0.3-21-0.5-42-0.4-63c0.1-6.7,0.1-13.4-0.2-20.1c-0.4,8.5,0.2,17-1.1,25.5c-1.2-9.3,0.1-18.7-0.1-28.1
	c0.3-6.2,0.3-12.4,1.2-18.5c0.7,4.7,0.1,9.7,2.7,13.9c0.8-6.3,0.9-12.8,2.2-19c0.5,9.1,0.7,18.2,0.7,27.3c-2.8,4.9-1.4,10.7-1.7,16
	c-0.4,30.3,0.1,60.6-0.4,90.8c-30-0.1-60-0.1-89.9,0c-0.5-20.6,0-41.2-0.3-61.8c0-11.6-0.2-23.2,0-34.8c-0.4,0.2-1.2,0.5-1.6,0.7
	C107.7,134.4,108.4,121.8,108.4,109.2 M779,133.3c0.6-4.3,1.7-8.6,2.9-12.8c0.9,5.4,0.6,11,0.7,16.5c0,6.4,0.3,12.9-0.1,19.3
	c-1.5-9.4-0.8-18.9-0.8-28.4c-0.6,8.5-0.7,16.9-1.5,25.4c-3.4-2.4-2.6-6.7-2.8-10.3c-0.2-6.4-1.6-12.9-0.1-19.3
	C777.8,126.8,778.4,130,779,133.3 M679.7,153.1l1,0c-0.3,5-0.3,9.9-0.3,14.9c0.1,25.6-0.1,51.3,0.1,76.9
	c-16.1,0.4-32.2,0.2-48.3,0.2l0-0.9c16,0.3,32,0.2,47.9,0.1c0.3-20.4,0.1-40.9,0.1-61.3C680.1,173,680.5,163,679.7,153.1
	 M250.5,173.9c0.4-0.9,0.8-1.8,1.1-2.7c-0.4,6.3,0.6,12.6,1.2,18.8c0.9-2.2,1.8-4.5,2.7-6.8c1.2,5.5,1.1,11.3,0.9,16.9
	c-0.3-2.5-0.8-5-1.3-7.4c-1.3,12.7-0.3,25.5-0.8,38.3c0.3,2.6-0.6,6,1.4,8.1c2.6,0.9,5.5,0.7,8.2,0.8c9.5-0.2,19,0.2,28.5-0.4
	c0.6-14.6,0.5-29.3-0.2-43.9c-1.1,6.5-0.5,13.1-1.2,19.7c-0.6-10.7-0.4-21.4,0.3-32.1c0.3-1.5,0.6-2.9,1-4.4c0.4,3,0.8,6.1,1.2,9.1
	c1.2-0.5,2.5-0.9,3.8-1.4c-0.4,18.8-0.9,37.5-0.6,56.3c-14.8,0-29.6,0-44.4,0c-0.3-16.1,0.9-32.2-0.9-48.3
	c-1.3,12.4-0.3,25-0.7,37.4c-0.1,4.1,0,8.2,0.3,12.2c15.7,0.2,31.4,0.2,47.1,0c0.3-14.1,0.1-28.2-0.1-42.3c-0.1-6,0.1-12-0.5-17.9
	c-0.2-2.3-0.4-4.7-0.4-7.1c0.1-1.4,0.2-2.9,0.4-4.3c0.7,2.9,1.1,5.9,1.2,8.9c0.6,21.1,0.2,42.3,0.3,63.4
	c-16.3,0.1-32.5,0.2-48.8-0.1C249.9,221.3,249.9,197.6,250.5,173.9 M328.7,182c3.5,2.4,6.9,5.1,10.3,7.8c-1-2.1-1.9-4.2-2.7-6.3
	c0.4,0.2,1.2,0.6,1.6,0.8c3.5,3.2,6.9,6.5,10.2,10c-0.5-0.1-1.4-0.3-1.9-0.3c12.9,14.4,27,27.6,40.5,41.5c1.9,1.7,3.7,4,6.4,4.3
	c4.6,0.5,9.3,0.2,13.9,0.2c9.3-0.2,18.7,0.6,28-0.2c-0.2-0.5-0.6-1.4-0.8-1.9c-0.1-0.3-0.5-1.1-0.6-1.4c0.7,0,2,0,2.7,0
	c-12.3-13.6-25.9-25.9-38.8-39c-1.9-2.1-4.3-3.8-6.9-4.7c-3.1-2.9-6.1-6.1-9.1-9.1c4.7,0.9,7.6,5.4,12.2,6.7c-1.6-2.5-3-5.2-4-8
	c4.5,4.3,9.1,8.4,13.3,12.9c-0.5-0.1-1.4-0.3-1.9-0.4c14.7,16.6,31,31.7,46.4,47.7c-12.2,0.7-24.4,0.1-36.6,0.3
	c-6-0.1-12,0.3-18-0.1c-2.3,0-4.1-1.6-5.6-3.1c-12-12.4-24.2-24.5-36.7-36.4c-3.8-3.5-7-8-12.1-9.7c-3.3-3.1-6.5-6.3-9.6-9.6
	C329,183.5,328.8,182.5,328.7,182 M451.6,243.5c0.6,0.6,1.2,1.3,1.8,1.9c-0.6,0-1.7,0-2.3,0c-13.7-0.5-27.4-0.1-41.2-0.2
	c-6.8-0.2-13.6,0.5-20.3-0.5c18.1-0.5,36.2-0.1,54.3-0.2C446.6,244.3,449.1,244,451.6,243.5 M108.1,244.2c9.3,0.4,18.6,0.1,27.9,0.2
	c22-0.1,43.9,0.3,65.9-0.2l-0.1,0.9c-31.3,0-62.5-0.1-93.8,0.1L108.1,244.2L108.1,244.2z"/>
<path class="st2" d="M534.9,24.2c0.7,0,2-0.1,2.7-0.1c0.2,10.7,0,21.4,0.1,32.1c-0.7,0-2.1,0-2.8,0
	C534.6,45.5,534.5,34.8,534.9,24.2 M535,108.2c3.1-0.2,6.2-0.2,9.2,0.3c-2.2-0.1-4.4-0.1-6.6-0.1c0.2,15,0,30,0.1,44.9
	c14.9,0.2,29.8,0.1,44.8,0.1c0,0.7,0,2-0.1,2.7c-14.9,0.9-29.8,0.2-44.7,0.4c0,14,0.1,28,0,42.1c-0.6,0-1.9-0.1-2.6-0.2
	c-0.7-13.9-0.2-27.9-0.3-41.8c-12.2-0.3-24.5,0-36.8-0.1c-2.3,0-4.5-0.2-6.8-0.6c-0.1-0.5-0.4-1.6-0.5-2.1
	c14.7-0.7,29.4-0.2,44.1-0.3C534.8,138.5,534.3,123.3,535,108.2 M784.2,140.7c0.6,7,0.5,14.1,0.6,21.2c0.7-0.8,1.4-1.6,2.1-2.5
	c8.2,1.4,16.5,0.9,24.8,0.9c0.3,1,0.7,2,1,3c0.1,7.7,0.3,15.3,0.4,23c-0.5-2.6-1-5.3-1.5-7.9c-13.7,0.1-27.4,0-41,0.1
	c-4.9-4.8-9.7-9.6-14.2-14.8c7.2-0.4,14.4-0.2,21.6-0.1c2.5,0.1,4.8-0.6,7.2-1.4c-10.8-1.7-21.8,0.2-32.6-1.2
	c10.4-0.3,20.8-0.2,31.2-0.1C783.6,154.1,783.5,147.4,784.2,140.7 M21.2,153.9c6.6-0.7,13.2-0.3,19.8-0.4
	c21.6-0.1,43.2,0.1,64.9-0.1c0,1.1,0,2.2,0,3.2c-28.4-0.4-56.8,0.3-85.2-0.4C20.8,155.7,21.1,154.5,21.2,153.9 M204.1,153.4
	c14.7,0.2,29.4,0.2,44.1,0c0.8,31-0.1,62,0.4,92.9c17.2,0.2,34.4,0.2,51.5,0c0.1-29.3,0.1-58.6,0-87.9l0.6,0.5
	c-0.5,8-0.2,16.1-0.2,24.1c0.2,21.3,0.4,42.7,0.2,64.1c-17.6,0.3-35.2,0.2-52.7,0c0.1-30.2-0.1-60.4,0.1-90.6
	c-14.7,0.1-29.3-0.1-44,0.1C204.2,155.5,204.2,154.4,204.1,153.4 M825.7,153.3c13.7,0.6,27.4-0.4,41.1,0.5c0.1,0.6,0.3,1.8,0.4,2.4
	c-13.8,0.7-27.7,0-41.5,0.4C825.7,155.6,825.7,154.4,825.7,153.3 M365,153.9c8.3-0.2,16.7-1,24.9,0.6c3,0.6,6,1,9.1,1
	c13.2-0.1,26.4,0,39.7-0.1c0.1,0.3,0.2,1,0.3,1.3c-6.6-0.8-13.3-0.2-20-0.3c-17.2-0.1-34.3,0.2-51.5,0.3
	C366.7,155.7,365.8,154.7,365,153.9 M118.8,166.8c8.4-0.9,16.8-0.4,25.2-0.5c15.7-0.1,31.4,0.2,47.1-0.1c0,6.7,0.3,13.3,0.3,20
	c-4.1,0.6-8.2,1.1-12.4,1.1c-12-0.1-24-0.1-36-0.1c-8.1,0.1-16.3-0.4-24.4,0.5C118.6,180.8,118.8,173.8,118.8,166.8 M455,168.5
	c8.3,1.2,16.7,1.1,24.9-0.2c2,8.1,6.5,15.2,11.5,21.8c-10.2,1.8-20.6,0.1-30.9,1c-3.2-5.9-5.1-12.4-6.7-18.9
	C454.1,170.9,454.5,169.7,455,168.5 M581.5,190.5c5.5-6.6,9.8-14.2,12.1-22.5c8.7,2.1,17.8,1.4,26.6,0.5c-1.5,8.1-3.8,16.2-7.7,23.4
	C602.3,189.7,591.8,191.5,581.5,190.5 M329.4,169.9c10.1-2.6,20.7-0.5,31.1-1.4c5.4,5.7,11.2,10.9,16.6,16.5
	c-10.4,2.5-21,0.7-31.5,0.9C339.9,180.8,334.9,175.1,329.4,169.9 M261,169.8c8.5-0.3,17-0.6,25.5,0.3c0.4,7.2,0.4,14.4,0.5,21.6
	c-1.9-1-3.8-2.2-6-2.1c-6.8-0.1-13.5,0.2-20.3-0.1c-0.1,1.2-0.3,2.5-0.4,3.7C260.2,185.4,260.1,177.6,261,169.8 M643,172.8
	c8.7-1.7,17.6-0.9,26.3-0.8c0,6.7,0.2,13.4,0.2,20.2c-8.9,1.3-18-0.5-26.9,1.6C642.6,186.7,643,179.7,643,172.8 M535.2,250.5
	c0.6,0,1.8,0,2.4,0c0.3,10.1,0.1,20.2,0.1,30.3c-0.7,0-2-0.1-2.7-0.1C534.6,270.7,534.3,260.6,535.2,250.5L535.2,250.5z"/>
<path class="st3" d="M630.4,50.7c32.1,32.5,64.6,64.6,96.8,97c1.4,1.2,2.7,2.9,4.7,2.7c13.9,0.1,27.8,0,41.7,0.1
	c0-31.9,0-63.8,0-95.7c17.3-0.1,34.6-0.1,51.9,0c0.2,32.8,0,65.7,0.1,98.5c0,1.1,0,2.2,0,3.3c-0.2,31.5,0.2,63.1-0.2,94.6
	C797.2,223.4,769.2,195,741,167c-3.9-3.8-7.5-8-11.8-11.3c-15.6-1-31.3,0.2-46.9-0.6l0,0.8c-0.2,30.3,0.1,60.6-0.1,90.8
	c-17.3,0.1-34.6,0.1-52,0c-0.2-21.2,0.3-42.4-0.2-63.6c-2.6,5.4-4.3,11.3-7.4,16.5c-16.6,30.6-50.3,50.9-85.2,50.8
	c-0.6,0-1.8,0-2.4,0c-24.2-0.4-48.4-9.9-65.8-26.9c-18.5-17.1-29.9-41.8-30.4-67.1c-0.1-0.3-0.2-1-0.3-1.3
	c-13.2,0.1-26.4,0-39.7,0.1c-3.1,0-6.1-0.3-9.1-1c1.2-8.4,0.6-17.6-4.6-24.7c-6.9-11-18.6-18.3-31.2-20.9c-4.3-0.8-8.8-0.5-13.2-0.5
	c-22.7,0-45.3,0.1-68-0.1c-0.3-10.4-0.1-20.8-0.2-31.2c0.1-7.4-0.3-14.9,0.4-22.3c23.3,0.1,46.6,0,69.8,0.1c4,0.1,7.9,0.6,11.9,0.8
	c25.3,2.5,48.6,16.4,64.8,35.7c7.5,8.6,13.8,18.4,17.7,29.2c1.4,4,2.3,8.2,3.6,12.3c4.6-21.7,17.1-41.5,34.4-55.2
	c16.7-13.4,37.9-21.2,59.4-21.3c0.7,0,2.1,0,2.8,0c7.6,0,15.2,1,22.6,2.8c29.7,7.2,55.4,29.2,66.9,57.6c0.9,2.2,1.6,4.7,0.8,7.1
	c-1.2-2.3-2.4-4.6-3.4-6.9c-2.1-7.6-6.9-14.2-11.8-20.2c-1.5,1.1-2.9,2.2-4.3,3.3c2.8,4.7,6.3,9.2,6.7,14.9
	c-7-13-16.6-24.7-28.9-32.9c-15.3-10.5-33.9-16-52.4-15.3c-29.6,0.6-58.1,17.5-72.9,43.1c-0.2-0.6-0.6-1.7-0.8-2.2
	c1.5-2.5,3.5-5,4.2-7.9c-0.8-1.5-1.8-2.8-2.8-4.2c-6.3,7.2-11.5,15.5-14.6,24.5c-3.2,8-4.4,16.5-7,24.6
	c-0.3-16.6-6.9-32.7-17.1-45.7c-2.3-3.4-5.1-6.5-8-9.5c-3.9-4.7-8.5-8.6-13.6-11.8c-1.8,1-3.6,1.9-5.5,2.9c4,4.9,10,8.2,12.5,14.3
	c-15.2-16-35.9-27.7-58.3-28.9c-22.5-0.2-45,0.1-67.5-0.2c0.1,10.8-0.2,21.6,0.2,32.4c-0.2,0.4-0.5,1.2-0.7,1.6l-0.7,0
	c-1-11.7-0.7-23.6,0-35.3c-1.1-2.9-4.2-4.7-6.3-6.9c-0.4,16.4-0.1,32.7-0.1,49.1c22.1,0.1,44.1,0,66.2,0c4.2,0,8.4-0.2,12.6,0.4
	c15.7,2.9,30.3,13.2,36.6,28.1c2.5,5.8,2,12.2,2.1,18.4c16.1,0,32.1,0,48.2,0c0.6,13.6,2.9,27.2,8.8,39.5c9.4,20.6,26.4,37.6,47,47
	c21.3,9.9,46.4,11.5,68.9,4.5c32.1-9.7,58.1-37.3,65-70.2c0.6-1,1.3-1.9,2.1-2.8c-0.2,24.3,0,48.6-0.1,72.9l0,0.9
	c16.1,0,32.2,0.3,48.3-0.2c-0.2-25.6,0-51.3-0.1-76.9c0-5,0-9.9,0.3-14.9c15.7,0.2,31.5-0.1,47.2,0.1c2.7-0.2,4.3,2.2,6.1,3.8
	c29.9,29.9,59.7,59.8,89.6,89.6c0.3-63.1,0-126.2,0.2-189.4c-0.4,0-1.1,0.1-1.5,0.1c-4,0-8,0.1-11.8,1.5c-5.8,2-12,2.7-17.9,4.4
	c3.8,0.5,7.6,0.9,11.5,1.3c-6.7,0.3-13.4,0.2-20.1,0.3l-0.1,0.9c-0.4,14.1-0.1,28.2-0.2,42.3c0.1,10.9-0.4,21.8,0.4,32.7
	c-0.7,6.7-0.7,13.4-0.4,20.1c-10.4-0.1-20.8-0.3-31.2,0.1c-0.6,0-1.7,0-2.3,0c12.3,12.7,25.3,24.7,38.1,37c2.6,3.8,6.2,6.8,10,9.2
	c0-1.2,0-2.3,0.1-3.5c3.8-0.1,7.6-0.6,11.4,0.2c2,0.9,3.1,3.1,4.5,4.8c-0.1-3-0.1-6-0.1-9c0.2-5.4,0.4-10.7,0.7-16.1
	c2.3,6.6,1.4,13.6,1.4,20.4c-0.1,8.2,0.6,16.4-0.8,24.5c-22.6-22.7-45.5-45.2-68.1-67.9c-6.5-4.1-14.7-5.2-20.5-10.6
	c-17-16.9-33.8-34-51-50.7c-3.2-3.5-6.7-6.8-10.2-10c-5-5.7-10.5-10.7-16.3-15.5c2.1,4.1,2.7,8.8,5,12.8c4.2,5.2,9,9.8,13.9,14.3
	c2,1.9,3.9,4.1,6,6c-0.3,0.3-1,0.9-1.3,1.2c-10.5-10.6-21.2-21.1-31.6-31.8c-1-1.6-1.8-3.4-2.5-5.1c-2.2-5.2-4.1-10.5-6.5-15.6
	c-0.5,26.7,0,53.3-0.3,80c-2.1-3.7-3.2-7.8-4-11.9c0.6-0.3,1.8-1,2.4-1.3C630.1,98.4,630.2,74.6,630.4,50.7 M776.4,112.6
	c0,4.1,0.1,8.2-0.2,12.2c-1.6,3.9-0.9,8.1-0.9,12.2c0.2,5.3-0.5,10.6,0.2,15.8l0.2-0.3c2.4,2,4.5,4.3,6.8,6.4c0-0.7-0.1-2-0.1-2.7
	c0.4-6.4,0.1-12.9,0.1-19.3c-0.2-5.5,0.2-11-0.7-16.5c1.2-7.9,0.6-16.1-0.2-24c-0.9,2.5-1.8,5.1-2.7,7.6c-1.3-2.8-1.9-5.8-2.4-8.9
	C775.1,100.9,775.2,106.9,776.4,112.6 M58.7,55.1c3.4-0.3,6.9-0.4,10.3-0.4c60.9,0.1,121.8-0.1,182.7,0.1c0.1,17.8,0.1,35.6,0,53.3
	c-16,0.3-32-0.2-47.9,0.2c-1.3,9.2,0.6,18.5-1.8,27.6c0-9.1-0.2-18.2-0.7-27.3c0-0.3,0.1-1,0.2-1.3c-1.2,0.1-2.4,0.1-3.6,0.2
	c-0.6-1.3-1.2-2.6-1.8-3.8c-1.3,9.5-1.6,19.1-0.8,28.6c0.2,9.4-1.1,18.8,0.1,28.1c-0.1,7.9,0.1,15.8-0.5,23.7
	c-0.1,17.9,0,35.9,0,53.8c-26.5-0.1-53.1,0-79.6,0c0-11.8,0.3-23.7-0.3-35.5c0.6-16.8,0.1-33.5,0.3-50.3c0.2-9.9-0.8-19.8-0.7-29.8
	c0.5-6.5,2.3-14-2.7-19.4c0.9-0.8,1.7-1.6,2.6-2.4c0.3-0.3,0.9-0.8,1.1-1c-16.1-0.4-32.2,0.2-48.3-0.3c-0.2-11.4,0.6-22.9-0.4-34.3
	c-0.6-2.8-3.3-4.4-5.1-6.5C60.7,57.3,59.7,56.2,58.7,55.1 M243.1,63.8l0.1,0.9c-0.9,11.4-0.2,22.9-0.4,34.4
	c-15.8,0.6-31.7-0.3-47.6,0.5c2,2.5,4.3,4.7,6.6,6.9c16-0.3,32,0,48-0.2c-0.1-16.4,0.4-32.8-0.3-49.2
	C247.4,59.3,245.2,61.5,243.1,63.8 M68.7,65.3c-0.2,10.8-0.2,21.6,0,32.4c15.9-0.2,31.8-0.1,47.6,0c0.4,28.8-0.4,57.6,0.9,86.3
	c-0.1,9.6,0.3,19.1,0.5,28.7c0.1,0,0.4,0,0.6,0c0-2.2,0-4.4,0-6.6c8.2,0.4,16.4,0.1,24.7,0.2c16.2-0.1,32.5,0.3,48.7-0.2
	c0,3,0,6,0.4,9c0.6-10.4,0.5-20.7,1.1-31.1c0.1-28.8,0.6-57.6,0.5-86.3c15.9-0.1,31.8-0.2,47.7,0.1c0.2-10.8,0.2-21.7,0-32.5
	c-5.5,0.3-10.9,0.2-16.4,0.2c-49.7,0-99.3,0-149,0C73.6,65.5,71.1,65.4,68.7,65.3 M511.9,112.9c14.1-8.7,32.8-9.1,47.4-1.2
	c13.8,7.3,23.7,21.7,25.1,37.3c0.7,8.6-0.4,17.4-4.2,25.3c-4.1,6-8.7,11.5-13.2,17.1c2.7-1.2,5.3-2.7,7.8-4.2
	c0.2,1.8,1.4,3.9-0.4,5.3c-17.2,17.3-47,20.5-67.2,6.4c-1.7-1.1-1.6-3.5-2.2-5.2c3.9,1.3,7.9,2.6,11.9,3.5c-4.2-2.4-8.5-4.6-11.9-8
	c-5-4.5-8.6-10.3-12-16c-1.5-4-2.8-8-3.5-12.1C486,142.2,495.6,122.4,511.9,112.9 M503.3,122.3c-8.3,8.3-12.5,20-12.7,31.6
	c0.1,0.5,0.4,1.6,0.5,2.1c0.3,22.8,21.4,42.3,43.9,42.4c0.6,0,1.9,0.1,2.6,0.2c11.7-0.4,23.4-5,31.5-13.5
	c7.9-7.5,12.7-18.1,13.3-28.9c0-0.7,0-2,0.1-2.7c0.4-7.7-2-15.4-5.7-22.1c-6.7-12-19-20.5-32.5-22.8c-3-0.6-6.1-0.6-9.2-0.3
	C523.1,108.2,511.4,113.7,503.3,122.3 M618.2,121.9c0.9,0.2,1.7,0.4,2.6,0.6c4.2,13.8,5.6,28.3,4.3,42.6
	c-2.8,18-10.8,35.3-23.5,48.4c-12.8,13.6-30,23-48.4,26.5c-27.7,5.4-57.7-3.5-78-23.2c3-0.4,5.5,1.4,7.8,3.1c-1.3-2-2.5-4-3.8-6.1
	c19.2-0.4,38.5,0.2,57.8-0.4c19.1,0.6,38.2-0.2,57.2,0.4c-1.6,2.4-3.2,4.8-4.8,7.3c2.6-1.9,5.1-3.9,7.3-6.2c4.7-5.4,10-10.3,14-16.4
	C625.1,176.2,628,146.6,618.2,121.9 M248.3,150.5c36.9,0,73.8,0,110.7,0c2.6-0.3,4.3,1.9,6,3.4c0.9,0.9,1.7,1.8,2.5,2.7
	c29.4,29.7,59.3,59,88.7,88.8c-0.9,0-1.8,0-2.7,0c-0.6-0.6-1.2-1.3-1.8-1.9c-16.1-16.2-32.2-32.3-48.5-48.3
	c-4.2-4.6-8.8-8.6-13.3-12.9c-3.5-3.9-7.2-7.6-11.4-10.9c-0.5,0.8-1.1,1.6-1.6,2.4c-2-0.6-4-1.1-6-1.6c3,4.3,6.7,8,10.7,11.3
	c3,3.1,5.9,6.2,9.1,9.1c14,14.9,28.8,29.1,43,43.8c0.1,0.3,0.5,1.1,0.6,1.4c-13.4-0.1-26.8,0-40.2-0.1c-1.6,0.2-2.8-1-3.8-2
	c-13.9-14-27.9-28-42.2-41.6c-3.3-3.5-6.7-6.8-10.2-10c-2.8-3.1-5.8-6-8.9-8.7c-0.5,1-0.9,2-1.4,3.1c-2.4-1.8-5-3.6-7.6-5.1
	c2.4,4,5.7,7.4,9.2,10.5c3.1,3.3,6.3,6.5,9.6,9.6c16.9,17.1,34,34.1,51,51c6.7,1,13.6,0.4,20.3,0.5c13.7,0.1,27.5-0.3,41.2,0.2
	c-10,1.4-20.1,0.5-30.2,0.7c-10.7,0.1-21.5-0.4-32.2,0.4c-14.5-14.9-29.4-29.4-44-44.2c-15.1-13.9-28.9-29.2-43.9-43.4l-0.6-0.5
	c0.1,29.3,0.1,58.6,0,87.9c-17.2,0.3-34.4,0.2-51.5,0c-0.5-31,0.4-62-0.4-92.9C248.3,152.6,248.3,151.2,248.3,150.5 M316.3,161.1
	h0.9c8.4,8.2,16.6,16.5,25.1,24.5c9.6,9.7,20.1,18.3,29.7,28c-2.5-2.9-5.2-5.6-7.8-8.2c9-2.5,18.4-0.1,27.6-1.4
	c0.9-0.8,1.8-1.6,2.7-2.4c4.2,4,8.3,8.1,12.6,12.1c-5.4-6.2-11.3-11.9-16.7-18.2c-11.5-11.5-22.9-23.2-34.4-34.7
	c-2.3-0.4-4.7-0.7-7.1-0.6c-9,0.1-18.1,0.1-27.1,0C320,160.1,318.2,160.6,316.3,161.1 M257.8,160.7c-0.1,6.8,0,13.5,0.3,20.3
	c0.5,11.7-0.2,23.4,1.2,35c0-2,0-4.1,0.1-6.1c1-1,2-2.2,3.2-3.1c2.4-0.4,4.9,0.1,7.3,0.2c5.8,0.5,11.6-0.9,17.5-0.4
	c0.1,2.7,0.1,5.3,0.1,8c0.2,0,0.6,0,0.8,0c0.5-18,1.4-36,1-54C278.9,160.8,268.3,160.7,257.8,160.7 M250.5,173.9
	c-0.6,23.7-0.6,47.4-0.4,71.1c16.3,0.3,32.6,0.2,48.8,0.1c-0.1-21.1,0.3-42.3-0.3-63.4c0-3-0.5-6-1.2-8.9c-0.2,1.4-0.3,2.8-0.4,4.3
	c-1,0.6-1.9,1.1-2.9,1.7c-0.7-1.9-1.4-3.7-2.1-5.6c-1,3.3-1.2,6.7-0.6,10.1c-0.6,10.7-0.9,21.4-0.3,32.1c-0.7,7.5-0.3,15-0.3,22.5
	c-11.5-0.1-22.9-0.1-34.4,0c0.1-12.6,0.2-25.1-0.1-37.7c0.3-5.6,0.4-11.4-0.9-16.9c1.9-5.8-0.4-12,0.2-18c-0.9,0.7-1.8,1.5-2.7,2.2
	c-0.7-1.1-1.4-2.3-2-3.5C250.4,167.2,249.9,170.6,250.5,173.9 M639.6,221c0.2-6.5-1-13.3,1.6-19.4c0.2,4.4,0.5,8.7,0.5,13.1
	c0.1,0,0.4,0.1,0.5,0.1c0-0.8,0-2.3,0-3.1c8.7-0.5,17.5,0.6,26.2-0.4c0.5,2.3,1.1,4.6,1.6,7c0.6-2.3,1.2-4.6,1.8-6.8
	c0.9,8.6,0.4,17.3,0.3,25.9c-10.8,0.2-21.7,0.2-32.5,0C639.6,231.8,639.6,226.4,639.6,221L639.6,221z"/>
<path class="st4" d="M57.8,55.1l0.9,0c1,1.1,2,2.1,3,3.2c-0.4-0.2-1-0.8-1.4-1c0,0.6,0,1.8,0,2.4C59.7,75.1,60.1,90.5,60,106
	l0.9,0.1c14.7,0.3,29.5,0,44.2,0.2c2.8,0.4,4.9-1.6,6.8-3.3c5,5.3,3.2,12.8,2.7,19.4c-0.2-2.8-0.6-5.6-0.9-8.3
	c-0.1,3-0.9,5.9-2.6,8.5c-1.1-4.3-1.5-8.7-1.5-13.2c-0.3,0-0.8,0-1.1,0c0,12.6-0.7,25.1-0.3,37.7c0.1,32.4,0.2,64.8,0,97.3l0,0.9
	c31.3-0.1,62.5,0,93.8-0.1l0.1-0.9c0.1-30,0.1-60.1,0-90.1c0.1-6-0.4-12,0.2-18c2.4-9,0.4-18.4,1.8-27.6c0.7,15,0.1,30,0.4,44.9
	c0,1.1,0,2.2,0,3.3c-0.1,30.1,0.1,60.3-0.1,90.4c-25.7,0.2-51.4,0-77.1,0.1c-7.1-0.1-14.1,0.2-21.2-0.2c-0.1-30.1-0.2-60.2,0.1-90.3
	c0-1.1,0-2.2,0-3.2c-0.2-15,0-30,0.1-45.1c-16-0.1-32.1,0.2-48.1-0.1C57.8,90.5,57.9,72.8,57.8,55.1 M810.6,58.9
	c3.8-1.4,7.8-1.4,11.8-1.5c-2.3,2.9-6.1,5.4-5.6,9.5c0.2,54-0.2,108,0.1,162c-0.3,0.1-1,0.3-1.4,0.4l0.1-0.8
	c1.4-8.1,0.7-16.3,0.8-24.5c-0.1-6.8,0.9-13.8-1.4-20.4c-0.3-12.2,0.1-24.4-0.1-36.6c0.7-27.1,0.2-54.2,0.4-81.4
	c-10.4,0-20.9-0.1-31.3,0l0.1-0.9c6.7,0,13.4,0,20.1-0.3c-3.8-0.4-7.7-0.8-11.5-1.3C798.6,61.6,804.8,60.9,810.6,58.9 M638.9,71.1
	c0.8,1.8,1.5,3.5,2.5,5.1c-1.5,7.5-0.4,15.2-0.7,22.7c-0.3,34.2,0.8,68.4,0.6,102.6c-2.7,6.2-1.5,13-1.6,19.4
	c-0.1,5.4,0,10.8,0.1,16.2c10.8,0.2,21.7,0.2,32.5,0c0.1-8.6,0.5-17.3-0.3-25.9c-0.6,2.3-1.2,4.5-1.8,6.8c-0.6-2.3-1.1-4.6-1.6-7
	c-8.7,1.1-17.5,0-26.2,0.4c0-6,0.5-12,0.4-18c8.8-2.1,18-0.3,26.9-1.6c0,6.3,0.2,12.7,0.9,19c-0.2-6.7,0.6-13.4,0.8-20.1
	c0.1-15.6,0.2-31.1,0.2-46.6c12.4-0.2,24.8,0.2,37.2-0.3c-11.7-12.2-23.9-23.9-35.7-36c0.3-0.3,1-0.9,1.3-1.2
	c1.4,1.3,2.9,2.6,4.3,3.9c11.3,11.8,23.1,23.1,34.3,35c-13,1.3-26.2-0.1-39.3,0.8l-0.7-0.3c0.4,4.6,0.4,9.3,0.5,14
	c-0.2,25.9,0,51.8-0.2,77.6c-11.3-0.1-22.7,0-34,0c0-13.6,0.1-27.3-0.1-40.9C638.6,155,638.5,113.1,638.9,71.1 M649.4,73.8
	c5.8,4.8,11.4,9.8,16.3,15.5c1.3,4.7,4.9,8.1,8,11.7c-1.8-0.1-3.6-0.2-5.4-0.2c-4.9-4.4-9.7-9.1-13.9-14.3
	C652.1,82.6,651.5,77.8,649.4,73.8 M395.8,80.1c1.8-1,3.6-1.9,5.5-2.9c5.1,3.2,9.8,7.2,13.6,11.8c-0.4-0.1-1.2-0.5-1.7-0.6
	c1.1,2.5,2.4,5,3.7,7.4c-2.5-1.3-4.9-2.5-7.4-3.7c2.3,3.8,4.9,7.5,8.2,10.5c8.8,12.8,15,27.8,15.1,43.5c-11.4,0.2-22.9,0.2-34.3,0
	c-0.4-5-0.9-10.1-2.9-14.7c-7.6-16.8-24.4-28.3-42.3-31.2c-6.3-1.2-12.8-0.7-19.2-0.8c-17.3,0-34.7,0.1-52-0.1
	c0.2-0.4,0.5-1.2,0.7-1.6c20.4-0.8,40.9-0.1,61.3-0.3c15.2-0.2,30.1,6,41.2,16.3c8.2,8.1,14.8,18.6,15,30.4
	c10.2,0.2,20.3,0.2,30.5,0c-0.4-13.8-5.6-27.2-13.5-38.4c-2.7-4-6-7.5-8.8-11.4C405.8,88.4,399.8,85.1,395.8,80.1 M447.1,119.6
	c3.1-9.1,8.3-17.3,14.6-24.5c1,1.4,2,2.7,2.8,4.2c-0.7,2.9-2.7,5.4-4.2,7.9c0.2,0.6,0.6,1.7,0.8,2.2c-14.2,24.2-15.4,55.3-3,80.5
	c4.2,9.2,11,16.7,18,23.8c-6.4-6.6-11.6-14.4-15.6-22.7c10.3-0.9,20.7,0.8,30.9-1c11.4,13.4,29.1,21,46.7,20.5
	c16.4-0.3,32.7-7.6,43.4-20c10.3,1,20.8-0.8,31,1.4c-3,5.4-5.8,10.9-9.9,15.7c-2.1,2.4-4.1,4.9-6,7.4c-2.2,2.3-4.7,4.3-7.3,6.2
	c1.6-2.4,3.2-4.9,4.8-7.3c-19.1-0.6-38.2,0.2-57.2-0.4c-19.2,0.5-38.5-0.1-57.8,0.4c1.2,2,2.5,4.1,3.8,6.1c-2.3-1.7-4.8-3.4-7.8-3.1
	c-15.9-14.4-25.5-35.2-27.5-56.5c-0.1-7.8,0-15.6,1.4-23.2c0.7-4.1,1.5-8.2,1.9-12.3c-1.6,2.8-3.1,5.6-4.7,8.4
	c0.3-3.8,0.9-7.5,1.7-11.1C447.7,121.4,447.3,120.2,447.1,119.6 M612.8,96.4c4.9,6.1,9.7,12.6,11.8,20.2c0.5,4.9,1.5,9.7,2.2,14.6
	c-1.7-2.8-3.2-5.7-4.9-8.4c-0.3-0.1-0.8-0.2-1.1-0.3c-0.9-0.2-1.7-0.4-2.6-0.6c-1-2.4-2.1-4.9-2.9-7.3c-0.4-5.6-4-10.2-6.7-14.9
	C610,98.6,611.4,97.5,612.8,96.4 M776.4,112.6c-1.2-5.7-1.3-11.6,0.2-17.3c0.5,3,1,6.1,2.4,8.9c0.8-2.6,1.7-5.1,2.7-7.6
	c0.8,7.9,1.4,16.1,0.2,24c-1.2,4.2-2.2,8.4-2.9,12.8c-0.5-3.2-1.2-6.4-1.7-9.6C777.4,119.9,777.3,116.2,776.4,112.6 M531.4,97.6
	c14-1.3,28.4,2.9,39.5,11.4c14,10.4,22.5,27.6,22.4,44.9c-0.3,13.2-5.2,26.3-14.1,36.1c-9.9,11.2-24.2,18.8-39.2,19.6
	c-25.9,1.9-51.2-16.7-57.9-41.7c-4-14.8-1.6-31.3,6.8-44.2C498,109.1,514.2,99.2,531.4,97.6 M523.1,101c-15.9,4-29.8,15.6-36.3,30.6
	c-4.3,9.5-5.5,20.4-3.5,30.7c-0.1,4,1.6,7.7,3.6,11c0.4-1.5,0.7-3.1,1-4.6c1.7,2.3,3.5,4.5,5.5,6.5c-0.1-0.6-0.3-1.7-0.4-2.3
	c3.4,5.7,7.1,11.5,12,16c3.4,3.4,7.8,5.7,11.9,8c-4.1-0.9-8-2.1-11.9-3.5c0.6,1.8,0.5,4.1,2.2,5.2c20.2,14,50,10.8,67.2-6.4
	c1.8-1.4,0.5-3.5,0.4-5.3c-2.5,1.6-5.1,3-7.8,4.2c4.5-5.6,9.2-11.1,13.2-17.1l-0.4,0.9c2.5-2.4,3.9-5.6,4.6-8.9
	c3.1,1.5,1.5,5.3,1.7,8c1.8-3,3.5-6.3,3.6-10c1.5-5.9,1.2-12.2,0.9-18.2c-1.8-14.6-10.2-28.1-22.2-36.5
	C555.6,100.1,538.5,97,523.1,101 M196,103.7c0.6,1.3,1.2,2.5,1.8,3.8c1.2-0.1,2.4-0.1,3.6-0.2c-0.1,0.3-0.1,1-0.2,1.3
	c-1.4,6.3-1.4,12.7-2.2,19c-2.6-4.2-2-9.2-2.7-13.9c-0.8,6.1-0.9,12.3-1.2,18.5C194.4,122.7,194.7,113.1,196,103.7 M775.4,137
	c0-4.1-0.7-8.3,0.9-12.2c-0.7,9.2-0.6,18.5-0.5,27.7l-0.2,0.3C774.9,147.6,775.6,142.3,775.4,137 M682.4,155.1
	c15.6,0.8,31.3-0.4,46.9,0.6c-15.6,0.3-31.3-0.2-46.9,0.2L682.4,155.1 M316.3,161.1c1.8-0.5,3.7-1,5.6-0.9c9,0.2,18.1,0.2,27.1,0
	c2.4-0.1,4.7,0.2,7.1,0.6c-12.9,0.7-25.9,0.2-38.8,0.3H316.3 M250.5,173.9c-0.6-3.3-0.1-6.6,0.5-9.9c0.7,1.1,1.3,2.3,2,3.5
	c0.9-0.7,1.8-1.5,2.7-2.2c-0.5,6,1.8,12.2-0.2,18c-0.9,2.3-1.8,4.5-2.7,6.8c-0.7-6.3-1.7-12.5-1.2-18.8
	C251.2,172,250.8,173,250.5,173.9 M378.4,171.4c4.1,3.3,7.9,6.9,11.4,10.9c1,2.8,2.4,5.5,4,8c-4.6-1.4-7.5-5.8-12.2-6.7
	c-4.1-3.3-7.7-7-10.7-11.3c2,0.5,4,1.1,6,1.6C377.4,173,377.9,172.2,378.4,171.4 M292,173.1c0.7,1.9,1.4,3.7,2.1,5.6
	c1-0.6,1.9-1.1,2.9-1.7c0.1,2.4,0.3,4.7,0.4,7.1c0,0.6-0.1,1.8-0.1,2.4c-1.3,0.5-2.5,0.9-3.8,1.4c-0.3-3-0.7-6.1-1.2-9.1
	c-0.4,1.5-0.7,2.9-1,4.4C290.9,179.9,291,176.4,292,173.1 M319.9,173.4c2.6,1.5,5.2,3.2,7.6,5.1c0.5-1,0.9-2,1.4-3.1
	c3.2,2.7,6.1,5.7,8.9,8.7c-0.4-0.2-1.2-0.6-1.6-0.8c0.8,2.1,1.8,4.2,2.7,6.3c-3.4-2.6-6.7-5.4-10.3-7.8c0.1,0.5,0.3,1.4,0.4,1.9
	C325.6,180.8,322.3,177.5,319.9,173.4 M770.6,178.4c13.7-0.2,27.3,0,41-0.1c0.5,2.6,1.1,5.2,1.5,7.9c0.4,5.9,0.9,11.8,0.4,17.8
	c0.2-1.4,0.5-2.9,0.7-4.3c0,3,0,6,0.1,9c-1.4-1.6-2.5-3.9-4.5-4.8c-3.8-0.8-7.6-0.3-11.4-0.2c0,1.1-0.1,2.3-0.1,3.5
	c-3.8-2.5-7.3-5.5-10-9.2C783.2,190.8,776.7,184.8,770.6,178.4 M345.5,185.9c10.5-0.2,21.1,1.7,31.5-0.9
	c5.7,5.8,11.6,11.2,17.5,16.7c-0.9,0.8-1.8,1.6-2.7,2.4c-9.1,1.3-18.6-1.1-27.6,1.4C357.8,199.1,352,192.2,345.5,185.9 M179,187.3
	c4.2,0,8.3-0.5,12.4-1.1c0,6.6,0.3,13.2,0.3,19.9c-16.2,0.5-32.5,0.1-48.7,0.2c-8.2-0.1-16.4,0.2-24.7-0.2
	c0.1-6.1,0.3-12.2,0.3-18.3c8.1-0.9,16.3-0.5,24.4-0.5C155,187.2,167,187.1,179,187.3 M260.8,189.5c6.8,0.3,13.5,0.1,20.3,0.1
	c2.2-0.1,4.1,1.1,6,2.1c0,5,0.2,10,0.4,15c-5.8-0.5-11.6,0.9-17.5,0.4c-2.4-0.1-4.9-0.6-7.3-0.2c-1.2,0.9-2.2,2-3.2,3.1
	c0.2-5.6,0.7-11.2,1-16.8C260.5,191.9,260.7,190.7,260.8,189.5 M451.2,245.4c0.6,0,1.7,0,2.3,0c0.9,0,1.8,0,2.7,0
	c0.3,0.4,1,1.1,1.3,1.5c-17.1,0.6-34.3,0.1-51.5,0.3c-5.7-0.1-11.6,0.5-17.2-0.7c10.7-0.8,21.5-0.3,32.2-0.4
	C431.1,245.8,441.2,246.7,451.2,245.4L451.2,245.4z"/>
<path class="st5" d="M787.1,136.4c8.2,0.4,16.5,0,24.8,0.4c0.6,8.8,1.4,17.6,0.9,26.4c-0.3-1-0.7-2-1-3c-8.3,0-16.6,0.5-24.8-0.9
	C786.3,151.7,786.6,144.1,787.1,136.4 M119.5,139.3c9.5-0.9,19-0.4,28.5-0.5c14.2,0.2,28.4-0.3,42.6,0.3c0.1,9,0.7,18,0.5,27.1
	c-15.7,0.3-31.4,0.1-47.1,0.1c-8.4,0.1-16.8-0.4-25.2,0.5C119,157.6,119.3,148.5,119.5,139.3 M452.2,149c0.3-2.2,1-5.3,3.9-5.2
	c7.2-0.6,14.4-0.1,21.7,0c-0.1,8.2,0.1,16.5,2.2,24.4c-8.2,1.3-16.7,1.4-24.9,0.2c-0.4,1.2-0.8,2.5-1.2,3.7
	C451.9,164.6,451.2,156.7,452.2,149 M595.9,144.8c6.7-0.2,13.5-0.5,20.2-0.2c1.5,0.3,3.9-0.1,4.5,1.8c2.2,7.2,0.9,14.8-0.3,22.1
	c-8.8,0.9-17.9,1.6-26.6-0.5C595.5,160.4,595.8,152.6,595.9,144.8 M643.8,146.9c8.2-0.2,16.5-0.5,24.6,0.3c0.6,8.2,1,16.5,0.9,24.7
	c-8.8,0-17.6-0.8-26.3,0.8C642.9,164.1,642.9,155.5,643.8,146.9 M257.8,160.7c10.5,0,21.1,0.1,31.7-0.1c0.3,18-0.6,36-1,54
	c-0.2,0-0.6,0-0.8,0c0-2.7-0.1-5.3-0.1-8c-0.1-5-0.3-10-0.4-15c-0.1-7.2-0.2-14.4-0.5-21.6c-8.5-0.9-17-0.6-25.5-0.3
	c-0.9,7.8-0.8,15.6-0.7,23.3c-0.3,5.6-0.8,11.2-1,16.8c0,2-0.1,4.1-0.1,6.1c-1.4-11.6-0.7-23.4-1.2-35
	C257.8,174.3,257.7,167.5,257.8,160.7 M323.3,163.4c7.6-0.5,15.2-0.1,22.7-0.3c2.9,0,5.8-0.2,8.7,0.5c2.3,1.1,4,3.2,5.8,4.9
	c-10.3,0.9-20.9-1.2-31.1,1.4C327.1,167.9,325.2,165.7,323.3,163.4L323.3,163.4z"/>
</svg>
